<svg width="42" height="46" viewBox="0 0 42 46" fill="none" xmlns="http://www.w3.org/2000/svg">
<path d="M23.3334 27.3333V34.3333C23.3313 36.1892 22.5932 37.9685 21.2808 39.2808C19.9685 40.5931 18.1892 41.3313 16.3334 41.3333H9.33335C9.02393 41.3333 8.72719 41.4562 8.5084 41.675C8.2896 41.8938 8.16669 42.1905 8.16669 42.5C8.16669 42.8094 8.2896 43.1061 8.5084 43.3249C8.72719 43.5437 9.02393 43.6666 9.33335 43.6666H16.3334C18.8078 43.6638 21.1802 42.6795 22.9299 40.9298C24.6796 39.1801 25.6638 36.8078 25.6667 34.3333V27.3333C25.6667 27.0239 25.5438 26.7271 25.325 26.5083C25.1062 26.2895 24.8094 26.1666 24.5 26.1666C24.1906 26.1666 23.8939 26.2895 23.6751 26.5083C23.4563 26.7271 23.3334 27.0239 23.3334 27.3333Z" fill="#A5A5A5"/>
<path d="M16.3333 40.1667C17.8799 40.1649 19.3626 39.5497 20.4561 38.4562C21.5497 37.3626 22.1649 35.8799 22.1667 34.3334V26.1667C22.1649 24.6202 21.5497 23.1375 20.4561 22.0439C19.3626 20.9504 17.8799 20.3352 16.3333 20.3334H8.16668C6.62014 20.3352 5.13747 20.9504 4.0439 22.0439C2.95033 23.1375 2.33517 24.6202 2.33334 26.1667V34.3334C2.33517 35.8799 2.95033 37.3626 4.0439 38.4562C5.13747 39.5497 6.62014 40.1649 8.16668 40.1667H16.3333ZM9.11168 28.9832L10.603 31.0454L15.5408 26.4767C15.7681 26.2665 16.0695 26.1553 16.3788 26.1673C16.6881 26.1794 16.9799 26.3139 17.19 26.5411C17.4002 26.7683 17.5115 27.0697 17.4994 27.379C17.4873 27.6883 17.3529 27.9801 17.1256 28.1903L11.2218 33.652C11.1007 33.7641 10.9571 33.8491 10.8006 33.9016C10.6442 33.954 10.4783 33.9727 10.3141 33.9563C10.1499 33.94 9.99103 33.889 9.84799 33.8067C9.70495 33.7244 9.58099 33.6127 9.48431 33.4789L7.22168 30.3503C7.04949 30.0993 6.98221 29.7909 7.0342 29.491C7.08619 29.1911 7.25333 28.9234 7.49996 28.745C7.74658 28.5666 8.05317 28.4916 8.35428 28.5361C8.65539 28.5806 8.92719 28.7411 9.11168 28.9832Z" fill="#A5A5A5"/>
<rect x="11.5" y="1.5" width="29" height="29" rx="14.5" fill="#5ECFFF" stroke="white" stroke-width="3"/>
<path d="M22.63 20.86H29.546V19.236H25.416C27.04 17.864 29.322 16.016 29.322 13.65C29.322 11.872 28.216 10.57 26.018 10.57C24.184 10.57 22.686 11.648 22.616 13.986H24.52C24.534 12.908 25.052 12.236 25.99 12.236C26.956 12.236 27.362 12.852 27.362 13.762C27.362 15.638 24.94 17.444 22.63 19.404V20.86Z" fill="white"/>
</svg>
