<svg width="50" height="50" viewBox="0 0 50 50" fill="none" xmlns="http://www.w3.org/2000/svg">
<rect width="50" height="50" rx="14" fill="#6418C3"/>
<path d="M25.7678 16.4541C26.5228 15.699 27.7766 15.6525 28.5962 16.4541L33.5459 21.4038C34.327 22.1849 34.327 23.4512 33.5459 24.2322C32.7909 24.9872 31.5372 25.0427 30.7175 24.2322L30.364 23.8785L27.4125 26.83C28.3029 29.2398 27.7067 32.2137 25.7678 34.1317C25.5584 34.3388 25.2363 34.3118 25.0606 34.1317L20.8178 29.8888L17.636 33.0711C17.4408 33.2663 17.1242 33.2663 16.9289 33.0711C16.7487 32.8908 16.717 32.5776 16.9289 32.364L20.1108 29.1818L15.8683 24.9393C15.688 24.7591 15.6533 24.4472 15.8683 24.2322C17.7601 22.3404 20.6336 21.6633 23.1695 22.587L26.121 19.6355L25.7678 19.2825C24.9618 18.4724 25.0127 17.2091 25.7678 16.4541Z" fill="white"/>
</svg>
