<svg width="24" height="24" viewBox="0 0 24 24" fill="none" xmlns="http://www.w3.org/2000/svg">
<g clip-path="url(#clip0_9_935)">
<path d="M19.848 1.32001H4.248C1.944 1.32001 0 3.26401 0 5.59201V18.408C0 20.736 1.944 22.68 4.272 22.68H19.752C22.056 22.68 24.024 20.736 24.024 18.408V5.59201C24.12 3.26401 22.176 1.32001 19.848 1.32001ZM21.552 18.528C21.552 19.512 20.832 20.352 19.848 20.352H4.248C3.264 20.352 2.424 19.488 2.424 18.528V5.59201C2.424 4.60801 3.288 3.76801 4.248 3.76801H19.728C20.712 3.76801 21.552 4.63201 21.552 5.59201V18.528Z" fill="#6418C3"/>
<path d="M17.664 5.47202C17.184 5.47202 16.68 5.71202 16.32 6.07202C15.96 6.43202 15.84 6.81602 15.84 7.29602C15.84 8.28002 16.704 9.12002 17.664 9.12002C18.624 9.12002 19.488 8.25602 19.488 7.29602C19.488 6.33602 18.624 5.47202 17.664 5.47202Z" fill="#6418C3"/>
<path d="M16.2 10.464C15.84 9.59999 14.616 9.47999 14.016 10.224L12.432 12.552C11.952 13.296 10.848 13.296 10.368 12.552L9.88802 11.952C9.40802 11.208 8.30402 11.352 7.82402 12.072L5.11202 16.344C4.63202 17.208 5.11202 18.288 6.21602 18.288H17.664C18.528 18.288 19.128 17.304 18.768 16.464L16.2 10.464Z" fill="#6418C3"/>
</g>
<defs>
<clipPath id="clip0_9_935">
<rect width="24" height="24" fill="white"/>
</clipPath>
</defs>
</svg>
