<svg width="39" height="47" viewBox="0 0 39 47" fill="none" xmlns="http://www.w3.org/2000/svg">
<path d="M13.3466 25.0083L12.775 23.2933C12.6947 23.0629 12.5451 22.8629 12.3466 22.7209C12.1482 22.5789 11.9107 22.5017 11.6666 22.5H5.83331C4.90589 22.5027 4.01722 22.8723 3.36143 23.5281C2.70564 24.1839 2.33602 25.0726 2.33331 26V28.3333H10.0216L13.3466 25.0083Z" fill="#A5A5A5"/>
<path d="M22.1666 26H15.6566L11.3283 30.3283C11.1059 30.5433 10.8093 30.6644 10.5 30.6667H2.33331V40C2.33602 40.9274 2.70564 41.8161 3.36143 42.4719C4.01722 43.1277 4.90589 43.4973 5.83331 43.5H22.1666C23.0941 43.4973 23.9827 43.1277 24.6385 42.4719C25.2943 41.8161 25.6639 40.9274 25.6666 40V29.5C25.6639 28.5726 25.2943 27.6839 24.6385 27.0281C23.9827 26.3723 23.0941 26.0027 22.1666 26Z" fill="#A5A5A5"/>
<rect x="8.5" y="1.5" width="29" height="29" rx="14.5" fill="#E328AF" stroke="white" stroke-width="3"/>
<path d="M22.624 17.822H24.276L24.5 11.06H22.386L22.624 17.822ZM24.682 19.95C24.682 19.306 24.178 18.802 23.492 18.802C22.778 18.802 22.274 19.306 22.274 19.95C22.274 20.594 22.778 21.098 23.492 21.098C24.178 21.098 24.682 20.594 24.682 19.95Z" fill="white"/>
</svg>
