<svg width="39" height="46" viewBox="0 0 39 46" fill="none" xmlns="http://www.w3.org/2000/svg">
<path d="M2.33334 41.3333C2.33611 42.2607 2.70575 43.1493 3.36153 43.8051C4.01731 44.4609 4.90594 44.8305 5.83334 44.8333H12.8333V33.1666H2.33334V41.3333Z" fill="#A5A5A5"/>
<path d="M15.1667 44.8333H22.1667C23.0941 44.8305 23.9827 44.4609 24.6385 43.8051C25.2943 43.1493 25.6639 42.2607 25.6667 41.3333V33.1666H15.1667V44.8333Z" fill="#A5A5A5"/>
<path d="M23.3333 23.8333H19.6233C19.7646 23.4607 19.8358 23.0651 19.8333 22.6666C19.8306 21.7392 19.4609 20.8506 18.8051 20.1948C18.1494 19.539 17.2607 19.1694 16.3333 19.1666C15.4694 19.1689 14.6374 19.4934 14 20.0766C13.3626 19.4934 12.5306 19.1689 11.6667 19.1666C10.7393 19.1694 9.85063 19.539 9.19485 20.1948C8.53908 20.8506 8.16944 21.7392 8.16667 22.6666C8.16419 23.0651 8.23538 23.4607 8.37667 23.8333H4.66667C3.73926 23.8361 2.85063 24.2057 2.19486 24.8615C1.53908 25.5173 1.16944 26.4059 1.16667 27.3333V29.6666C1.16667 29.976 1.28959 30.2728 1.50838 30.4916C1.72717 30.7104 2.02392 30.8333 2.33334 30.8333H12.8333V23.8333H11.6667C11.4359 23.8333 11.2104 23.7649 11.0185 23.6367C10.8266 23.5085 10.6771 23.3263 10.5888 23.1131C10.5005 22.8999 10.4774 22.6653 10.5224 22.439C10.5674 22.2127 10.6785 22.0048 10.8417 21.8417C11.0049 21.6785 11.2127 21.5674 11.4391 21.5224C11.6654 21.4774 11.9 21.5005 12.1131 21.5888C12.3263 21.6771 12.5085 21.8266 12.6367 22.0185C12.7649 22.2103 12.8333 22.4359 12.8333 22.6666V23.8333H15.1667V22.6666C15.1667 22.4359 15.2351 22.2103 15.3633 22.0185C15.4915 21.8266 15.6737 21.6771 15.8869 21.5888C16.1 21.5005 16.3346 21.4774 16.5609 21.5224C16.7872 21.5674 16.9951 21.6785 17.1583 21.8417C17.3214 22.0048 17.4326 22.2127 17.4776 22.439C17.5226 22.6653 17.4995 22.8999 17.4112 23.1131C17.3229 23.3263 17.1734 23.5085 16.9815 23.6367C16.7896 23.7649 16.5641 23.8333 16.3333 23.8333H15.1667V30.8333H25.6667C25.9761 30.8333 26.2728 30.7104 26.4916 30.4916C26.7104 30.2728 26.8333 29.976 26.8333 29.6666V27.3333C26.8306 26.4059 26.4609 25.5173 25.8051 24.8615C25.1494 24.2057 24.2607 23.8361 23.3333 23.8333Z" fill="#A5A5A5"/>
<rect x="8.5" y="1.5" width="29" height="29" rx="14.5" fill="#5ECFFF" stroke="white" stroke-width="3"/>
<path d="M20.274 10.766V16.758H22.15C22.36 16.128 22.878 15.68 23.69 15.68C24.796 15.68 25.37 16.31 25.37 17.458C25.37 18.536 24.852 19.348 23.704 19.348C22.752 19.348 22.178 18.83 22.01 18.116H20.106C20.274 19.782 21.534 21 23.732 21C26.056 21 27.26 19.516 27.26 17.43C27.26 15.848 26.448 14.056 24.068 14.056C23.214 14.056 22.444 14.42 22.066 14.882V12.488H26.602V10.766H20.274Z" fill="white"/>
</svg>
