<svg width="42" height="46" viewBox="0 0 42 46" fill="none" xmlns="http://www.w3.org/2000/svg">
<path d="M25.4707 37.1862L23.3333 33.9802V29.6667C23.3333 27.1914 22.35 24.8174 20.5997 23.067C18.8493 21.3167 16.4753 20.3334 14 20.3334C11.5246 20.3334 9.15066 21.3167 7.40033 23.067C5.64999 24.8174 4.66666 27.1914 4.66666 29.6667V33.9802L2.52932 37.1862C2.41256 37.362 2.34562 37.5661 2.33561 37.7769C2.32559 37.9877 2.37288 38.1972 2.47245 38.3833C2.57201 38.5693 2.72013 38.7249 2.90106 38.8335C3.08199 38.9421 3.28897 38.9997 3.49999 39H24.5C24.711 38.9997 24.918 38.9421 25.0989 38.8335C25.2798 38.7249 25.428 38.5693 25.5275 38.3833C25.6271 38.1972 25.6744 37.9877 25.6644 37.7769C25.6544 37.5661 25.5874 37.362 25.4707 37.1862Z" fill="#A5A5A5"/>
<path d="M14 43.6666C15.0344 43.6675 16.0397 43.324 16.8572 42.6903C17.6748 42.0565 18.258 41.1686 18.515 40.1666H9.485C9.74197 41.1686 10.3252 42.0565 11.1428 42.6903C11.9603 43.324 12.9656 43.6675 14 43.6666Z" fill="#A5A5A5"/>
<rect x="11.5" y="1.5" width="29" height="29" rx="14.5" fill="#5ECFFF" stroke="white" stroke-width="3"/>
<path d="M21.862 21H23.878V10.794H20.504V12.6H21.862V21ZM25.7023 20.86H32.6183V19.236H28.4883C30.1123 17.864 32.3943 16.016 32.3943 13.65C32.3943 11.872 31.2883 10.57 29.0903 10.57C27.2563 10.57 25.7583 11.648 25.6883 13.986H27.5923C27.6063 12.908 28.1243 12.236 29.0623 12.236C30.0283 12.236 30.4343 12.852 30.4343 13.762C30.4343 15.638 28.0123 17.444 25.7023 19.404V20.86Z" fill="white"/>
</svg>
