<svg width="113" height="113" viewBox="0 0 113 113" fill="none" xmlns="http://www.w3.org/2000/svg">
<path d="M106 56.5C106 83.8381 83.8381 106 56.5 106C29.1619 106 7 83.8381 7 56.5C7 29.1619 29.1619 7 56.5 7C83.8381 7 106 29.1619 106 56.5ZM9.78207 56.5C9.78207 82.3016 30.6984 103.218 56.5 103.218C82.3016 103.218 103.218 82.3016 103.218 56.5C103.218 30.6984 82.3016 9.78207 56.5 9.78207C30.6984 9.78207 9.78207 30.6984 9.78207 56.5Z" stroke="#DFEDF2" stroke-width="14"/>
<path d="M63.5 8.39101C63.5 7.97166 63.6724 7.69184 63.7957 7.57413C63.8086 7.56174 63.8197 7.55238 63.8286 7.54545C71.1442 8.64064 78.1538 11.3668 84.3231 15.5595C92.53 21.1369 98.8712 29.052 102.524 38.2778C106.177 47.5037 106.972 57.6144 104.808 67.2981C103.181 74.5776 99.9371 81.3633 95.354 87.1695C95.3428 87.1706 95.3283 87.1713 95.3104 87.1712C95.1399 87.1697 94.8227 87.0838 94.5356 86.7781L89.4329 91.5699L94.5356 86.7781C94.3207 86.5492 94.1162 86.1713 94.1155 85.4931C94.1147 84.7666 94.367 83.8783 94.9112 83.0923C98.3226 78.1646 100.772 72.6003 102.093 66.6912C104.136 57.5518 103.385 48.0093 99.9372 39.302C96.4898 30.5946 90.505 23.1244 82.7594 17.8605C77.7514 14.4571 72.1569 12.0777 66.2969 10.8208C65.3621 10.6203 64.5701 10.1455 64.0733 9.6153C63.6096 9.1204 63.5 8.70499 63.5 8.39101ZM63.8545 7.52805C63.8545 7.52806 63.854 7.5283 63.8531 7.52872L63.8545 7.52805Z" stroke="url(#paint0_linear_9_87)" stroke-width="14"/>
<path d="M42.456 65.288C41.208 65.288 39.768 65.08 38.136 64.664L37.368 64.472L37.536 61.952C39.296 62.256 40.72 62.408 41.808 62.408C42.736 62.408 43.416 62.248 43.848 61.928C44.296 61.592 44.52 61.096 44.52 60.44C44.52 59.768 44.312 59.256 43.896 58.904C43.48 58.536 42.92 58.352 42.216 58.352H39.024V55.616H42.216C42.744 55.616 43.208 55.392 43.608 54.944C44.024 54.496 44.232 53.976 44.232 53.384C44.232 52.824 44.016 52.416 43.584 52.16C43.168 51.888 42.504 51.752 41.592 51.752C40.84 51.752 39.752 51.864 38.328 52.088L37.704 52.184L37.488 49.736C38.96 49.16 40.576 48.872 42.336 48.872C44.176 48.872 45.52 49.216 46.368 49.904C47.216 50.576 47.64 51.648 47.64 53.12C47.64 53.984 47.488 54.704 47.184 55.28C46.896 55.84 46.432 56.344 45.792 56.792C46.352 57.096 46.776 57.384 47.064 57.656C47.368 57.928 47.584 58.272 47.712 58.688C47.856 59.088 47.928 59.624 47.928 60.296C47.928 61.992 47.488 63.248 46.608 64.064C45.744 64.88 44.36 65.288 42.456 65.288ZM56.1017 65.288C52.1017 65.288 50.1017 63.848 50.1017 60.968C50.1017 59.992 50.2457 59.216 50.5337 58.64C50.8377 58.048 51.3577 57.448 52.0937 56.84C51.4217 56.312 50.9657 55.792 50.7257 55.28C50.4857 54.752 50.3657 54.056 50.3657 53.192C50.3657 51.832 50.8857 50.768 51.9257 50C52.9657 49.248 54.3577 48.872 56.1017 48.872C57.8617 48.872 59.2697 49.264 60.3257 50.048C61.3977 50.816 61.9337 51.872 61.9337 53.216C61.9337 54.144 61.8217 54.84 61.5977 55.304C61.3737 55.768 60.9097 56.28 60.2057 56.84C60.9417 57.448 61.4537 58.024 61.7417 58.568C62.0297 59.096 62.1737 59.808 62.1737 60.704C62.1737 62.224 61.6297 63.368 60.5417 64.136C59.4697 64.904 57.9897 65.288 56.1017 65.288ZM57.2057 55.592C57.9897 55.048 58.3817 54.424 58.3817 53.72C58.3817 52.472 57.6377 51.848 56.1497 51.848C54.6617 51.848 53.9177 52.496 53.9177 53.792C53.9177 54.448 54.3097 55.048 55.0937 55.592H57.2057ZM56.1497 62.312C57.7977 62.312 58.6217 61.608 58.6217 60.2C58.6217 59.368 58.1497 58.768 57.2057 58.4H55.0937C54.1337 58.752 53.6537 59.352 53.6537 60.2C53.6537 61.608 54.4857 62.312 56.1497 62.312ZM65.8594 65.192L71.4994 48.224L73.2514 48.848L67.6114 65.768L65.8594 65.192ZM66.0754 55.856C64.1554 55.856 63.1954 54.688 63.1954 52.352C63.1954 50.032 64.1554 48.872 66.0754 48.872C67.9954 48.872 68.9554 50.032 68.9554 52.352C68.9554 54.688 67.9954 55.856 66.0754 55.856ZM66.0754 53.936C66.4274 53.936 66.6034 53.408 66.6034 52.352C66.6034 51.312 66.4274 50.792 66.0754 50.792C65.7234 50.792 65.5474 51.312 65.5474 52.352C65.5474 53.408 65.7234 53.936 66.0754 53.936ZM73.0834 65.288C71.1634 65.288 70.2034 64.12 70.2034 61.784C70.2034 59.464 71.1634 58.304 73.0834 58.304C75.0034 58.304 75.9634 59.464 75.9634 61.784C75.9634 64.12 75.0034 65.288 73.0834 65.288ZM73.0834 63.368C73.4354 63.368 73.6114 62.84 73.6114 61.784C73.6114 60.744 73.4354 60.224 73.0834 60.224C72.7314 60.224 72.5554 60.744 72.5554 61.784C72.5554 62.84 72.7314 63.368 73.0834 63.368Z" fill="#5ECFFF"/>
<defs>
<linearGradient id="paint0_linear_9_87" x1="56.5" y1="-3.37156e-07" x2="24.5" y2="113" gradientUnits="userSpaceOnUse">
<stop stop-color="#1CBBFF"/>
<stop offset="1" stop-color="#74EDFF"/>
</linearGradient>
</defs>
</svg>
