<svg width="113" height="113" viewBox="0 0 113 113" fill="none" xmlns="http://www.w3.org/2000/svg">
<path d="M106 56.5C106 83.8381 83.8381 106 56.5 106C29.1619 106 7 83.8381 7 56.5C7 29.1619 29.1619 7 56.5 7C83.8381 7 106 29.1619 106 56.5ZM9.78207 56.5C9.78207 82.3016 30.6984 103.218 56.5 103.218C82.3016 103.218 103.218 82.3016 103.218 56.5C103.218 30.6984 82.3016 9.78207 56.5 9.78207C30.6984 9.78207 9.78207 30.6984 9.78207 56.5Z" stroke="#FFCFF2" stroke-width="14"/>
<path d="M28.6699 96.3618L23.6123 91.6123L28.6699 96.3618C28.8849 96.1329 29.2492 95.9051 29.926 95.8617C30.651 95.8153 31.5534 96.0113 32.372 96.5051C36.0407 98.7177 40.0098 100.423 44.1724 101.562L46.0195 94.8102L44.1724 101.562C51.523 103.573 59.254 103.755 66.6912 102.093L65.1642 95.2614L66.6912 102.093C74.1284 100.43 81.046 96.9739 86.8409 92.0246C92.6357 87.0753 97.1319 80.7836 99.9372 73.698C102.743 66.6124 103.772 58.9482 102.936 51.3734C102.1 43.7987 99.423 36.5436 95.1395 30.2406C90.856 23.9377 85.0957 18.7783 78.3607 15.2123C74.5467 13.1929 70.4858 11.7192 66.2967 10.8208C65.3621 10.6204 64.5701 10.1455 64.0733 9.61538C63.6096 9.1205 63.5 8.70506 63.5 8.39105C63.5 7.97167 63.6724 7.69187 63.7956 7.57418C63.8086 7.56179 63.8197 7.55244 63.8286 7.54551C69.3457 8.37144 74.7013 10.1268 79.6625 12.7536C86.7985 16.5319 92.9019 21.9986 97.4405 28.6769C101.979 35.3552 104.815 43.0424 105.701 51.0682C106.587 59.0939 105.496 67.2146 102.524 74.7222C99.5515 82.2297 94.7876 88.8961 88.6477 94.1401C82.5078 99.3841 75.1782 103.046 67.2981 104.808C59.418 106.569 51.2267 106.376 43.4383 104.246C38.0235 102.764 32.9178 100.378 28.3307 97.2031C28.3289 97.1919 28.3273 97.1775 28.3263 97.1596C28.317 96.9895 28.3829 96.6675 28.6699 96.3618ZM63.8544 7.52811C63.8544 7.52815 63.854 7.52835 63.8532 7.52871L63.8544 7.52811Z" stroke="url(#paint0_linear_7_1303)" stroke-width="14"/>
<path d="M42.744 65.288C40.808 65.288 39.336 64.584 38.328 63.176C37.336 61.752 36.84 59.664 36.84 56.912C36.84 54.208 37.4 52.192 38.52 50.864C39.64 49.536 41.28 48.872 43.44 48.872C44.72 48.872 46.056 49.048 47.448 49.4L48.192 49.568L47.904 52.112C46.272 51.872 44.856 51.752 43.656 51.752C41.384 51.752 40.248 52.984 40.248 55.448L40.752 55.304C41.776 55 42.616 54.848 43.272 54.848C45.096 54.848 46.456 55.264 47.352 56.096C48.264 56.928 48.72 58.216 48.72 59.96C48.72 61.704 48.208 63.032 47.184 63.944C46.176 64.84 44.696 65.288 42.744 65.288ZM42.912 62.408C43.68 62.408 44.272 62.2 44.688 61.784C45.104 61.352 45.312 60.752 45.312 59.984C45.312 58.48 44.536 57.728 42.984 57.728C42.264 57.728 41.48 57.864 40.632 58.136L40.224 58.256C40.224 61.024 41.12 62.408 42.912 62.408ZM50.9897 62.192L54.3737 58.76C55.2537 57.848 55.9097 57.136 56.3417 56.624C56.7737 56.112 57.0857 55.64 57.2777 55.208C57.4857 54.776 57.5897 54.312 57.5897 53.816C57.5897 53.096 57.3977 52.584 57.0137 52.28C56.6457 51.96 56.0857 51.8 55.3337 51.8C54.2777 51.8 53.1097 51.896 51.8297 52.088L51.2537 52.16L51.0857 49.592C52.6537 49.112 54.2777 48.872 55.9577 48.872C59.3177 48.872 60.9977 50.384 60.9977 53.408C60.9977 54.208 60.8857 54.92 60.6617 55.544C60.4537 56.152 60.0937 56.776 59.5817 57.416C59.0857 58.04 58.3737 58.776 57.4457 59.624L54.6857 62.12H61.2617V65H50.9897V62.192ZM65.8594 65.192L71.4994 48.224L73.2514 48.848L67.6114 65.768L65.8594 65.192ZM66.0754 55.856C64.1554 55.856 63.1954 54.688 63.1954 52.352C63.1954 50.032 64.1554 48.872 66.0754 48.872C67.9954 48.872 68.9554 50.032 68.9554 52.352C68.9554 54.688 67.9954 55.856 66.0754 55.856ZM66.0754 53.936C66.4274 53.936 66.6034 53.408 66.6034 52.352C66.6034 51.312 66.4274 50.792 66.0754 50.792C65.7234 50.792 65.5474 51.312 65.5474 52.352C65.5474 53.408 65.7234 53.936 66.0754 53.936ZM73.0834 65.288C71.1634 65.288 70.2034 64.12 70.2034 61.784C70.2034 59.464 71.1634 58.304 73.0834 58.304C75.0034 58.304 75.9634 59.464 75.9634 61.784C75.9634 64.12 75.0034 65.288 73.0834 65.288ZM73.0834 63.368C73.4354 63.368 73.6114 62.84 73.6114 61.784C73.6114 60.744 73.4354 60.224 73.0834 60.224C72.7314 60.224 72.5554 60.744 72.5554 61.784C72.5554 62.84 72.7314 63.368 73.0834 63.368Z" fill="#E328AF"/>
<defs>
<linearGradient id="paint0_linear_7_1303" x1="56.5" y1="2.57727e-07" x2="24.5" y2="113" gradientUnits="userSpaceOnUse">
<stop stop-color="#E328AF"/>
<stop offset="1" stop-color="#FC5CFF"/>
</linearGradient>
</defs>
</svg>
