<svg width="230" height="212" viewBox="0 0 230 212" fill="none" xmlns="http://www.w3.org/2000/svg">
<mask id="path-1-inside-1_9_1005" fill="white">
<path d="M212 106C212 164.542 164.542 212 106 212C47.4578 212 -1.52588e-05 164.542 -1.52588e-05 106C-1.52588e-05 47.4578 47.4578 0 106 0C164.542 0 212 47.4578 212 106ZM31.4849 106C31.4849 147.154 64.8465 180.515 106 180.515C147.154 180.515 180.515 147.154 180.515 106C180.515 64.8465 147.154 31.4849 106 31.4849C64.8465 31.4849 31.4849 64.8465 31.4849 106Z"/>
</mask>
<path d="M212 106C212 164.542 164.542 212 106 212C47.4578 212 -1.52588e-05 164.542 -1.52588e-05 106C-1.52588e-05 47.4578 47.4578 0 106 0C164.542 0 212 47.4578 212 106ZM31.4849 106C31.4849 147.154 64.8465 180.515 106 180.515C147.154 180.515 180.515 147.154 180.515 106C180.515 64.8465 147.154 31.4849 106 31.4849C64.8465 31.4849 31.4849 64.8465 31.4849 106Z" stroke="#F5F5F5" stroke-width="10" mask="url(#path-1-inside-1_9_1005)"/>
<path d="M106 0C121.541 1.85326e-07 136.892 3.41735 150.966 10.01C165.039 16.6026 177.491 26.2092 187.439 38.1494C197.387 50.0895 204.587 64.071 208.531 79.1035C212.474 94.1361 213.064 109.852 210.258 125.138L168.555 117.483C170.238 108.311 169.885 98.8816 167.519 89.8621C165.152 80.8426 160.832 72.4537 154.863 65.2896C148.895 58.1255 141.424 52.3616 132.979 48.406C124.535 44.4504 115.325 42.4 106 42.4V0Z" fill="#6418C3"/>
<path d="M229.014 128.193C223.575 158.34 207.255 185.441 183.152 204.349L138.134 146.963C148.173 139.087 154.97 127.8 157.236 115.243L229.014 128.193Z" fill="#5ECFFF"/>
<path d="M171.04 148.928L168.466 150.584L167.332 148.73L171.256 146.12H173.524V158H171.04V148.928ZM181.112 148.928L178.538 150.584L177.404 148.73L181.328 146.12H183.596V158H181.112V148.928ZM188.395 158.144L192.625 145.418L193.939 145.886L189.709 158.576L188.395 158.144ZM188.557 151.142C187.117 151.142 186.397 150.266 186.397 148.514C186.397 146.774 187.117 145.904 188.557 145.904C189.997 145.904 190.717 146.774 190.717 148.514C190.717 150.266 189.997 151.142 188.557 151.142ZM188.557 149.702C188.821 149.702 188.953 149.306 188.953 148.514C188.953 147.734 188.821 147.344 188.557 147.344C188.293 147.344 188.161 147.734 188.161 148.514C188.161 149.306 188.293 149.702 188.557 149.702ZM193.813 158.216C192.373 158.216 191.653 157.34 191.653 155.588C191.653 153.848 192.373 152.978 193.813 152.978C195.253 152.978 195.973 153.848 195.973 155.588C195.973 157.34 195.253 158.216 193.813 158.216ZM193.813 156.776C194.077 156.776 194.209 156.38 194.209 155.588C194.209 154.808 194.077 154.418 193.813 154.418C193.549 154.418 193.417 154.808 193.417 155.588C193.417 156.38 193.549 156.776 193.813 156.776Z" fill="white"/>
<path d="M171.402 189.418C151.806 204.782 127.426 212.757 102.538 211.943C77.6498 211.13 53.8425 201.581 35.291 184.97L63.5746 153.382C74.7055 163.348 88.9899 169.078 103.923 169.566C118.856 170.054 133.484 165.269 145.241 156.051L171.402 189.418Z" fill="#E328AF"/>
<path d="M35.4435 185.106C22.2385 173.328 12.1919 158.432 6.2199 141.776C0.247866 125.12 -1.45962 107.234 1.25315 89.7488L43.1519 96.2493C41.5242 106.74 42.5487 117.472 46.1319 127.466C49.7152 137.459 55.7431 146.397 63.6661 153.464L35.4435 185.106Z" fill="#FFAB2D"/>
<path d="M1.24484 89.8025C5.10781 64.8193 17.7725 42.0392 36.9538 25.5722C56.1352 9.10526 80.5702 0.0357846 105.85 9.15527e-05L105.91 42.4C90.7421 42.4215 76.0811 47.8631 64.5723 57.7433C53.0635 67.6235 45.4647 81.2915 43.1469 96.2815L1.24484 89.8025Z" fill="#FF4A55"/>
</svg>
